<svg xmlns="http://www.w3.org/2000/svg" viewBox="0 0 214.24 245.78"><title>stetoscope</title><g id="Calque_2" data-name="Calque 2"><g id="Calque_1-2" data-name="Calque 1"><g id="InWV8C.tif"><path d="M104.21,245.78a87.61,87.61,0,0,1-9-1.81c-17.3-5.31-27.88-16.82-31.28-34.66a56.64,56.64,0,0,1-.87-10c-.1-10.79,0-21.59,0-32.64h-8.2c0-4.14-.06-8,0-11.91,0-1.58-.3-2.25-2.08-2.69C27,145.6,10.1,129.66,2.39,104.19A61.36,61.36,0,0,1,.13,82.66H8.21V79.59q0-31.2,0-62.4C8.2,7.6,15.37.2,25.8,0c2,0,4,.57,4.58,2.68a4.86,4.86,0,0,1-.72,3.88A5.68,5.68,0,0,1,25.9,8.11c-6.13.26-9.61,3.21-9.64,9.17-.11,21.36,0,42.72,0,64.07a8.69,8.69,0,0,0,.18,1.17h8.11c-.89,15.42,4.39,28.05,16.28,37.61,8.78,7.05,19,9.89,30.17,9,17.61-1.46,39.55-16,39.08-46.46H118c.07-1,.16-1.66.16-2.35q0-31.2,0-62.4c0-5.85-3.65-9.67-9.16-9.72-3.57,0-5.68-1.6-5.57-4.15.11-2.71,2.8-4.4,6.28-3.95,10.73,1.38,16.39,7.74,16.41,18.63q0,30.24,0,60.48v3.33h8.37c-.17,3.91-.1,7.57-.53,11.17a67.46,67.46,0,0,1-52.6,58.44c-1.57.35-2.11.89-2.07,2.48.1,3.9,0,7.8,0,11.88H71.08v2.69q0,16.08,0,32.16c0,17.57,11.56,32.17,28.69,35.65a35.48,35.48,0,0,0,41.85-28.13,53.14,53.14,0,0,0,.86-9.51c.08-31.11,0-62.23.14-93.35,0-10.55,9.48-21,19.94-23a25.36,25.36,0,0,1,29.63,19.55,37.08,37.08,0,0,1,.66,7.37q.06,41,0,82.07v2.44c3.66,1.77,7.28,3,10.39,5.09,8.6,5.63,12.65,16.51,10.29,26.62a25.64,25.64,0,0,1-21.4,19.18,4.68,4.68,0,0,0-1.08.43h-4.8c-.19-.13-.37-.36-.57-.38-12.77-1-23.78-14.07-22.11-27.71,1.24-10.16,8.55-19.42,18.53-21.82,1.92-.46,2.79-1.15,2.78-3.43-.11-27.5-.06-55-.09-82.51a33.86,33.86,0,0,0-.44-5.23C182.63,93.62,170,87.21,160,92.38c-6.88,3.59-9.7,9.57-9.71,17.06q0,45.34,0,90.68a51.42,51.42,0,0,1-.5,8.33c-2.69,16.43-11.87,27.87-27.22,34.08-4.26,1.73-9,2.2-13.57,3.25Zm13.63-155c-.22.91-.46,1.66-.58,2.44s0,1.61-.19,2.38c-2.51,11.82-7.93,22-17.37,29.68-14,11.49-30,15.15-47.2,9.69-20.6-6.54-32.57-21.05-35.72-42.62a2.34,2.34,0,0,0-1.48-1.6c-2.28-.18-4.59-.07-6.89-.07C8.64,111,25.51,141.72,63,145.75v12.54h8.43V145.66c32.53-3.15,53.37-29.18,54.5-54.89ZM188.71,202.9a17.37,17.37,0,1,0,17.5,17.36A17.43,17.43,0,0,0,188.71,202.9Z"/><path d="M188.76,233.3a13.07,13.07,0,0,1,0-26.13c7.22,0,13,5.14,13.16,13A12.8,12.8,0,0,1,188.76,233.3Zm0-8.06a5.21,5.21,0,0,0,5.18-5.08,5.61,5.61,0,0,0-5.08-5.07,5.22,5.22,0,0,0-5,5A4.81,4.81,0,0,0,188.78,225.24Z"/></g></g></g></svg>