<svg xmlns="http://www.w3.org/2000/svg" viewBox="0 0 127.75 68.59" width="127">
  <circle cx="118.12" cy="58.96" r="9.63" fill="#0877C6"/>
  <path d="M43 .16l.83-.15h.08-18.93C6.24 0 0 68.4 0 68.4h19.57s2.8-30.85 10.33-51.1c.88-2.6 2.34-6.26 4.4-9.56.85-1.4 1.82-2.73 2.9-3.9C38.88 2.04 40.8.7 43 .17z" fill="#0877C6"/>
  <path d="M72.12 60.1c-3.58-6.16-6.4-15-8.55-24.02-.26-1.23-.55-2.47-.84-3.7 0-.05-.02-.1-.04-.16C59 16.77 53.34 1.87 45.2.17h-.04c-2.3.35-7.2 1.9-10.43 8.32 3.53 6.1 6.28 14.85 8.42 23.82.27 1.23.55 2.47.84 3.7l.02.15c3.7 15.43 9.3 30.3 17.45 32.05 2.1-.27 7.26-1.6 10.64-8.14z" fill="#0877C6"/>
  <path d="M107.1 0H87.55S83.6 43.13 72.6 60.9l-.13.2c-2.45 3.9-5.63 6.94-9.75 7.3h.1-.24 20.06-.25C100.9 67.8 107.1 0 107.1 0z" fill="#0877C6"/>
</svg>
