<svg version="1.1" xmlns="http://www.w3.org/2000/svg" xmlns:xlink="http://www.w3.org/1999/xlink" width="39" height="35"><defs/><g><path fill="rgb(255,255,255)" stroke="none" paint-order="stroke fill markers" fill-rule="evenodd" d=" M 37.383423805236816 32.79229128360748 C 37.383423805236816 32.79229128360748 36.766754150390625 32.79229128360748 36.766754150390625 32.79229128360748 C 36.766754150390625 32.79229128360748 36.766754150390625 14.075064659118652 36.766754150390625 14.075064659118652 C 36.766754150390625 13.741616606712341 36.490784645080566 13.47135841846466 36.150084495544434 13.47135841846466 C 36.150084495544434 13.47135841846466 33.06673622131348 13.47135841846466 33.06673622131348 13.47135841846466 C 33.06673622131348 13.47135841846466 33.06673622131348 11.660045266151428 33.06673622131348 11.660045266151428 C 33.06673622131348 11.660045266151428 34.91674518585205 11.660045266151428 34.91674518585205 11.660045266151428 C 35.25732612609863 11.660045266151428 35.53341484069824 11.389981508255005 35.53341484069824 11.056339025497437 C 35.53341484069824 11.056339025497437 35.53341484069824 2.603479504585266 35.53341484069824 2.603479504585266 C 35.53341484069824 2.2698370218276978 35.25732612609863 1.9997732639312744 34.91674518585205 1.9997732639312744 C 34.91674518585205 1.9997732639312744 22.583352088928223 1.9997732639312744 22.583352088928223 1.9997732639312744 C 22.24277114868164 1.9997732639312744 21.966801643371582 2.2698370218276978 21.966801643371582 2.603479504585266 C 21.966801643371582 2.603479504585266 21.966801643371582 11.056339025497437 21.966801643371582 11.056339025497437 C 21.966801643371582 11.389981508255005 22.24277114868164 11.660045266151428 22.583352088928223 11.660045266151428 C 22.583352088928223 11.660045266151428 24.433361053466797 11.660045266151428 24.433361053466797 11.660045266151428 C 24.433361053466797 11.660045266151428 24.433361053466797 13.47135841846466 24.433361053466797 13.47135841846466 C 24.433361053466797 13.47135841846466 20.73334312438965 13.47135841846466 20.73334312438965 13.47135841846466 C 20.73334312438965 13.47135841846466 20.73334312438965 5.622593998908997 20.73334312438965 5.622593998908997 C 20.73334312438965 5.288757085800171 20.45725440979004 5.018693327903748 20.116792678833008 5.018693327903748 C 20.116792678833008 5.018693327903748 2.8500423431396484 5.018693327903748 2.8500423431396484 5.018693327903748 C 2.5094614028930664 5.018693327903748 2.233372688293457 5.288757085800171 2.233372688293457 5.622593998908997 C 2.233372688293457 5.622593998908997 2.233372688293457 32.79229128360748 2.233372688293457 32.79229128360748 C 2.233372688293457 32.79229128360748 1.6165838241577148 32.79229128360748 1.6165838241577148 32.79229128360748 C 1.2760028839111328 32.79229128360748 1.0000333786010742 33.062549471855164 1.0000333786010742 33.395997524261475 C 1.0000333786010742 33.729445576667786 1.2760028839111328 33.999898195266724 1.6165838241577148 33.999898195266724 C 1.6165838241577148 33.999898195266724 37.383304595947266 33.999898195266724 37.383304595947266 33.999898195266724 C 37.72388553619385 33.999898195266724 37.99997425079346 33.729445576667786 37.99997425079346 33.395997524261475 C 37.99997425079346 33.062549471855164 37.7240047454834 32.79229128360748 37.383423805236816 32.79229128360748 Z M 12.71663761138916 32.792096853256226 C 12.71663761138916 32.792096853256226 10.249958992004395 32.792096853256226 10.249958992004395 32.792096853256226 C 10.249958992004395 32.792096853256226 10.249958992004395 29.16947054862976 10.249958992004395 29.16947054862976 C 10.249958992004395 29.16947054862976 12.71663761138916 29.16947054862976 12.71663761138916 29.16947054862976 C 12.71663761138916 29.16947054862976 12.71663761138916 32.792096853256226 12.71663761138916 32.792096853256226 Z M 23.200021743774414 3.207380175590515 C 23.200021743774414 3.207380175590515 34.30007553100586 3.207380175590515 34.30007553100586 3.207380175590515 C 34.30007553100586 3.207380175590515 34.30007553100586 10.452438354492188 34.30007553100586 10.452438354492188 C 34.30007553100586 10.452438354492188 23.200021743774414 10.452438354492188 23.200021743774414 10.452438354492188 C 23.200021743774414 10.452438354492188 23.200021743774414 3.207380175590515 23.200021743774414 3.207380175590515 Z M 25.66670036315918 11.660045266151428 C 25.66670036315918 11.660045266151428 31.833396911621094 11.660045266151428 31.833396911621094 11.660045266151428 C 31.833396911621094 11.660045266151428 31.833396911621094 13.47135841846466 31.833396911621094 13.47135841846466 C 31.833396911621094 13.47135841846466 25.66670036315918 13.47135841846466 25.66670036315918 13.47135841846466 C 25.66670036315918 13.47135841846466 25.66670036315918 11.660045266151428 25.66670036315918 11.660045266151428 Z M 25.047646522521973 14.678965330123901 C 25.048361778259277 14.678965330123901 25.049196243286133 14.679159760475159 25.05003070831299 14.679159760475159 C 25.050865173339844 14.679159760475159 25.05158042907715 14.678965330123901 25.052534103393555 14.678965330123901 C 25.052534103393555 14.678965330123901 32.44756317138672 14.678965330123901 32.44756317138672 14.678965330123901 C 32.448397636413574 14.678965330123901 32.44923210144043 14.679159760475159 32.450066566467285 14.679159760475159 C 32.45090103149414 14.679159760475159 32.451616287231445 14.678965330123901 32.45256996154785 14.678965330123901 C 32.45256996154785 14.678965330123901 35.53341484069824 14.678965330123901 35.53341484069824 14.678965330123901 C 35.53341484069824 14.678965330123901 35.53341484069824 32.792096853256226 35.53341484069824 32.792096853256226 C 35.53341484069824 32.792096853256226 20.73334312438965 32.792096853256226 20.73334312438965 32.792096853256226 C 20.73334312438965 32.792096853256226 20.73334312438965 14.678965330123901 20.73334312438965 14.678965330123901 C 20.73334312438965 14.678965330123901 25.047646522521973 14.678965330123901 25.047646522521973 14.678965330123901 C 25.047646522521973 14.678965330123901 25.047646522521973 14.678965330123901 25.047646522521973 14.678965330123901 Z M 3.466592788696289 6.226300239562988 C 3.466592788696289 6.226300239562988 19.500003814697266 6.226300239562988 19.500003814697266 6.226300239562988 C 19.500003814697266 6.226300239562988 19.500003814697266 14.075064659118652 19.500003814697266 14.075064659118652 C 19.500003814697266 14.075064659118652 19.500003814697266 32.792096853256226 19.500003814697266 32.792096853256226 C 19.500003814697266 32.792096853256226 13.949976921081543 32.792096853256226 13.949976921081543 32.792096853256226 C 13.949976921081543 32.792096853256226 13.949976921081543 28.56576430797577 13.949976921081543 28.56576430797577 C 13.949976921081543 28.232316255569458 13.674007415771484 27.962058067321777 13.333426475524902 27.962058067321777 C 13.333426475524902 27.962058067321777 9.633408546447754 27.962058067321777 9.633408546447754 27.962058067321777 C 9.292827606201172 27.962058067321777 9.016738891601562 28.232316255569458 9.016738891601562 28.56576430797577 C 9.016738891601562 28.56576430797577 9.016738891601562 32.792096853256226 9.016738891601562 32.792096853256226 C 9.016738891601562 32.792096853256226 3.46671199798584 32.792096853256226 3.46671199798584 32.792096853256226 C 3.46671199798584 32.792096853256226 3.46671199798584 6.226300239562988 3.46671199798584 6.226300239562988 C 3.46671199798584 6.226300239562988 3.466592788696289 6.226300239562988 3.466592788696289 6.226300239562988 Z M 29.98338794708252 4.414987087249756 C 29.642807006835938 4.414987087249756 29.366718292236328 4.685050845146179 29.366718292236328 5.018887758255005 C 29.366718292236328 5.018887758255005 29.366718292236328 6.226300239562988 29.366718292236328 6.226300239562988 C 29.366718292236328 6.226300239562988 28.133378982543945 6.226300239562988 28.133378982543945 6.226300239562988 C 28.133378982543945 6.226300239562988 28.133378982543945 5.018887758255005 28.133378982543945 5.018887758255005 C 28.133378982543945 4.685050845146179 27.857409477233887 4.414987087249756 27.516709327697754 4.414987087249756 C 27.176128387451172 4.414987087249756 26.900158882141113 4.685050845146179 26.900158882141113 5.018887758255005 C 26.900158882141113 5.018887758255005 26.900158882141113 8.641125202178955 26.900158882141113 8.641125202178955 C 26.900158882141113 8.974767684936523 27.176128387451172 9.245025873184204 27.516709327697754 9.245025873184204 C 27.857409477233887 9.245025873184204 28.133378982543945 8.974767684936523 28.133378982543945 8.641125202178955 C 28.133378982543945 8.641125202178955 28.133378982543945 7.433907151222229 28.133378982543945 7.433907151222229 C 28.133378982543945 7.433907151222229 29.366718292236328 7.433907151222229 29.366718292236328 7.433907151222229 C 29.366718292236328 7.433907151222229 29.366718292236328 8.641125202178955 29.366718292236328 8.641125202178955 C 29.366718292236328 8.974767684936523 29.64292621612549 9.245025873184204 29.98338794708252 9.245025873184204 C 30.3239688873291 9.245025873184204 30.60005760192871 8.974767684936523 30.60005760192871 8.641125202178955 C 30.60005760192871 8.641125202178955 30.60005760192871 5.018887758255005 30.60005760192871 5.018887758255005 C 30.60005760192871 4.685050845146179 30.3239688873291 4.414987087249756 29.98338794708252 4.414987087249756 Z M 5.9333906173706055 12.867652177810669 C 5.9333906173706055 12.867652177810669 9.633408546447754 12.867652177810669 9.633408546447754 12.867652177810669 C 9.973989486694336 12.867652177810669 10.249958992004395 12.597588419914246 10.249958992004395 12.26375150680542 C 10.249958992004395 12.26375150680542 10.249958992004395 8.641125202178955 10.249958992004395 8.641125202178955 C 10.249958992004395 8.307871580123901 9.973989486694336 8.037418961524963 9.633408546447754 8.037418961524963 C 9.633408546447754 8.037418961524963 5.9333906173706055 8.037418961524963 5.9333906173706055 8.037418961524963 C 5.592809677124023 8.037418961524963 5.316720962524414 8.307871580123901 5.316720962524414 8.641125202178955 C 5.316720962524414 8.641125202178955 5.316720962524414 12.26375150680542 5.316720962524414 12.26375150680542 C 5.316601753234863 12.597199559211731 5.592809677124023 12.867652177810669 5.9333906173706055 12.867652177810669 Z M 6.550060272216797 9.245025873184204 C 6.550060272216797 9.245025873184204 9.016619682312012 9.245025873184204 9.016619682312012 9.245025873184204 C 9.016619682312012 9.245025873184204 9.016619682312012 11.660045266151428 9.016619682312012 11.660045266151428 C 9.016619682312012 11.660045266151428 6.550060272216797 11.660045266151428 6.550060272216797 11.660045266151428 C 6.550060272216797 11.660045266151428 6.550060272216797 9.245025873184204 6.550060272216797 9.245025873184204 Z M 13.333426475524902 12.867652177810669 C 13.333426475524902 12.867652177810669 17.03344440460205 12.867652177810669 17.03344440460205 12.867652177810669 C 17.374025344848633 12.867652177810669 17.64999485015869 12.597588419914246 17.64999485015869 12.26375150680542 C 17.64999485015869 12.26375150680542 17.64999485015869 8.641125202178955 17.64999485015869 8.641125202178955 C 17.64999485015869 8.307871580123901 17.374025344848633 8.037418961524963 17.03344440460205 8.037418961524963 C 17.03344440460205 8.037418961524963 13.333426475524902 8.037418961524963 13.333426475524902 8.037418961524963 C 12.99284553527832 8.037418961524963 12.716756820678711 8.307871580123901 12.716756820678711 8.641125202178955 C 12.716756820678711 8.641125202178955 12.716756820678711 12.26375150680542 12.716756820678711 12.26375150680542 C 12.71663761138916 12.597199559211731 12.99284553527832 12.867652177810669 13.333426475524902 12.867652177810669 Z M 13.949976921081543 9.245025873184204 C 13.949976921081543 9.245025873184204 16.41665554046631 9.245025873184204 16.41665554046631 9.245025873184204 C 16.41665554046631 9.245025873184204 16.41665554046631 11.660045266151428 16.41665554046631 11.660045266151428 C 16.41665554046631 11.660045266151428 13.949976921081543 11.660045266151428 13.949976921081543 11.660045266151428 C 13.949976921081543 11.660045266151428 13.949976921081543 9.245025873184204 13.949976921081543 9.245025873184204 Z M 5.9333906173706055 19.509198546409607 C 5.9333906173706055 19.509198546409607 9.633408546447754 19.509198546409607 9.633408546447754 19.509198546409607 C 9.973989486694336 19.509198546409607 10.249958992004395 19.238940358161926 10.249958992004395 18.905297875404358 C 10.249958992004395 18.905297875404358 10.249958992004395 15.28286600112915 10.249958992004395 15.28286600112915 C 10.249958992004395 14.94941794872284 9.973989486694336 14.678965330123901 9.633408546447754 14.678965330123901 C 9.633408546447754 14.678965330123901 5.9333906173706055 14.678965330123901 5.9333906173706055 14.678965330123901 C 5.592809677124023 14.678965330123901 5.316720962524414 14.94941794872284 5.316720962524414 15.28286600112915 C 5.316720962524414 15.28286600112915 5.316720962524414 18.905297875404358 5.316720962524414 18.905297875404358 C 5.316601753234863 19.238940358161926 5.592809677124023 19.509198546409607 5.9333906173706055 19.509198546409607 Z M 6.550060272216797 15.886572241783142 C 6.550060272216797 15.886572241783142 9.016619682312012 15.886572241783142 9.016619682312012 15.886572241783142 C 9.016619682312012 15.886572241783142 9.016619682312012 18.301591634750366 9.016619682312012 18.301591634750366 C 9.016619682312012 18.301591634750366 6.550060272216797 18.301591634750366 6.550060272216797 18.301591634750366 C 6.550060272216797 18.301591634750366 6.550060272216797 15.886572241783142 6.550060272216797 15.886572241783142 Z M 13.333426475524902 19.509198546409607 C 13.333426475524902 19.509198546409607 17.03344440460205 19.509198546409607 17.03344440460205 19.509198546409607 C 17.374025344848633 19.509198546409607 17.64999485015869 19.238940358161926 17.64999485015869 18.905297875404358 C 17.64999485015869 18.905297875404358 17.64999485015869 15.28286600112915 17.64999485015869 15.28286600112915 C 17.64999485015869 14.94941794872284 17.374025344848633 14.678965330123901 17.03344440460205 14.678965330123901 C 17.03344440460205 14.678965330123901 13.333426475524902 14.678965330123901 13.333426475524902 14.678965330123901 C 12.99284553527832 14.678965330123901 12.716756820678711 14.94941794872284 12.716756820678711 15.28286600112915 C 12.716756820678711 15.28286600112915 12.716756820678711 18.905297875404358 12.716756820678711 18.905297875404358 C 12.71663761138916 19.238940358161926 12.99284553527832 19.509198546409607 13.333426475524902 19.509198546409607 Z M 13.949976921081543 15.886572241783142 C 13.949976921081543 15.886572241783142 16.41665554046631 15.886572241783142 16.41665554046631 15.886572241783142 C 16.41665554046631 15.886572241783142 16.41665554046631 18.301591634750366 16.41665554046631 18.301591634750366 C 16.41665554046631 18.301591634750366 13.949976921081543 18.301591634750366 13.949976921081543 18.301591634750366 C 13.949976921081543 18.301591634750366 13.949976921081543 15.886572241783142 13.949976921081543 15.886572241783142 Z M 9.633408546447754 26.150550484657288 C 9.973989486694336 26.150550484657288 10.249958992004395 25.880292296409607 10.249958992004395 25.547038674354553 C 10.249958992004395 25.547038674354553 10.249958992004395 21.92421793937683 10.249958992004395 21.92421793937683 C 10.249958992004395 21.590575456619263 9.973989486694336 21.32051169872284 9.633408546447754 21.32051169872284 C 9.633408546447754 21.32051169872284 5.9333906173706055 21.32051169872284 5.9333906173706055 21.32051169872284 C 5.592809677124023 21.32051169872284 5.316720962524414 21.590575456619263 5.316720962524414 21.92421793937683 C 5.316720962524414 21.92421793937683 5.316720962524414 25.547038674354553 5.316720962524414 25.547038674354553 C 5.316720962524414 25.880292296409607 5.592809677124023 26.150550484657288 5.9333906173706055 26.150550484657288 C 5.9333906173706055 26.150550484657288 9.633408546447754 26.150550484657288 9.633408546447754 26.150550484657288 Z M 6.550060272216797 22.52811861038208 C 6.550060272216797 22.52811861038208 9.016619682312012 22.52811861038208 9.016619682312012 22.52811861038208 C 9.016619682312012 22.52811861038208 9.016619682312012 24.943138003349304 9.016619682312012 24.943138003349304 C 9.016619682312012 24.943138003349304 6.550060272216797 24.943138003349304 6.550060272216797 24.943138003349304 C 6.550060272216797 24.943138003349304 6.550060272216797 22.52811861038208 6.550060272216797 22.52811861038208 Z M 23.200021743774414 22.52811861038208 C 23.200021743774414 22.52811861038208 26.900039672851562 22.52811861038208 26.900039672851562 22.52811861038208 C 27.240620613098145 22.52811861038208 27.516709327697754 22.257471561431885 27.516709327697754 21.92421793937683 C 27.516709327697754 21.92421793937683 27.516709327697754 18.301591634750366 27.516709327697754 18.301591634750366 C 27.516709327697754 17.968143582344055 27.240620613098145 17.697690963745117 26.900039672851562 17.697690963745117 C 26.900039672851562 17.697690963745117 23.200021743774414 17.697690963745117 23.200021743774414 17.697690963745117 C 22.859440803527832 17.697690963745117 22.583352088928223 17.968143582344055 22.583352088928223 18.301591634750366 C 22.583352088928223 18.301591634750366 22.583352088928223 21.92421793937683 22.583352088928223 21.92421793937683 C 22.583352088928223 22.257665991783142 22.859440803527832 22.52811861038208 23.200021743774414 22.52811861038208 Z M 23.816691398620605 18.905297875404358 C 23.816691398620605 18.905297875404358 26.28337001800537 18.905297875404358 26.28337001800537 18.905297875404358 C 26.28337001800537 18.905297875404358 26.28337001800537 21.32051169872284 26.28337001800537 21.32051169872284 C 26.28337001800537 21.32051169872284 23.816691398620605 21.32051169872284 23.816691398620605 21.32051169872284 C 23.816691398620605 21.32051169872284 23.816691398620605 18.905297875404358 23.816691398620605 18.905297875404358 Z M 23.200021743774414 29.16947054862976 C 23.200021743774414 29.16947054862976 26.900039672851562 29.16947054862976 26.900039672851562 29.16947054862976 C 27.240620613098145 29.16947054862976 27.516709327697754 28.899406790733337 27.516709327697754 28.56576430797577 C 27.516709327697754 28.56576430797577 27.516709327697754 24.94333243370056 27.516709327697754 24.94333243370056 C 27.516709327697754 24.609689950942993 27.240620613098145 24.339431762695312 26.900039672851562 24.339431762695312 C 26.900039672851562 24.339431762695312 23.200021743774414 24.339431762695312 23.200021743774414 24.339431762695312 C 22.859440803527832 24.339431762695312 22.583352088928223 24.609689950942993 22.583352088928223 24.94333243370056 C 22.583352088928223 24.94333243370056 22.583352088928223 28.56576430797577 22.583352088928223 28.56576430797577 C 22.583352088928223 28.89921236038208 22.859440803527832 29.16947054862976 23.200021743774414 29.16947054862976 Z M 23.816691398620605 25.547038674354553 C 23.816691398620605 25.547038674354553 26.28337001800537 25.547038674354553 26.28337001800537 25.547038674354553 C 26.28337001800537 25.547038674354553 26.28337001800537 27.962058067321777 26.28337001800537 27.962058067321777 C 26.28337001800537 27.962058067321777 23.816691398620605 27.962058067321777 23.816691398620605 27.962058067321777 C 23.816691398620605 27.962058067321777 23.816691398620605 25.547038674354553 23.816691398620605 25.547038674354553 Z M 29.366718292236328 22.52811861038208 C 29.366718292236328 22.52811861038208 33.06673622131348 22.52811861038208 33.06673622131348 22.52811861038208 C 33.40731716156006 22.52811861038208 33.68340587615967 22.257471561431885 33.68340587615967 21.92421793937683 C 33.68340587615967 21.92421793937683 33.68340587615967 18.301591634750366 33.68340587615967 18.301591634750366 C 33.68340587615967 17.968143582344055 33.40731716156006 17.697690963745117 33.06673622131348 17.697690963745117 C 33.06673622131348 17.697690963745117 29.366718292236328 17.697690963745117 29.366718292236328 17.697690963745117 C 29.026137351989746 17.697690963745117 28.750048637390137 17.968143582344055 28.750048637390137 18.301591634750366 C 28.750048637390137 18.301591634750366 28.750048637390137 21.92421793937683 28.750048637390137 21.92421793937683 C 28.750048637390137 22.257665991783142 29.026137351989746 22.52811861038208 29.366718292236328 22.52811861038208 Z M 29.98338794708252 18.905297875404358 C 29.98338794708252 18.905297875404358 32.450066566467285 18.905297875404358 32.450066566467285 18.905297875404358 C 32.450066566467285 18.905297875404358 32.450066566467285 21.32051169872284 32.450066566467285 21.32051169872284 C 32.450066566467285 21.32051169872284 29.98338794708252 21.32051169872284 29.98338794708252 21.32051169872284 C 29.98338794708252 21.32051169872284 29.98338794708252 18.905297875404358 29.98338794708252 18.905297875404358 C 29.98338794708252 18.905297875404358 29.98338794708252 18.905297875404358 29.98338794708252 18.905297875404358 Z M 29.366718292236328 29.16947054862976 C 29.366718292236328 29.16947054862976 33.06673622131348 29.16947054862976 33.06673622131348 29.16947054862976 C 33.40731716156006 29.16947054862976 33.68340587615967 28.899406790733337 33.68340587615967 28.56576430797577 C 33.68340587615967 28.56576430797577 33.68340587615967 24.94333243370056 33.68340587615967 24.94333243370056 C 33.68340587615967 24.609689950942993 33.40731716156006 24.339431762695312 33.06673622131348 24.339431762695312 C 33.06673622131348 24.339431762695312 29.366718292236328 24.339431762695312 29.366718292236328 24.339431762695312 C 29.026137351989746 24.339431762695312 28.750048637390137 24.609689950942993 28.750048637390137 24.94333243370056 C 28.750048637390137 24.94333243370056 28.750048637390137 28.56576430797577 28.750048637390137 28.56576430797577 C 28.750048637390137 28.89921236038208 29.026137351989746 29.16947054862976 29.366718292236328 29.16947054862976 Z M 29.98338794708252 25.547038674354553 C 29.98338794708252 25.547038674354553 32.450066566467285 25.547038674354553 32.450066566467285 25.547038674354553 C 32.450066566467285 25.547038674354553 32.450066566467285 27.962058067321777 32.450066566467285 27.962058067321777 C 32.450066566467285 27.962058067321777 29.98338794708252 27.962058067321777 29.98338794708252 27.962058067321777 C 29.98338794708252 27.962058067321777 29.98338794708252 25.547038674354553 29.98338794708252 25.547038674354553 C 29.98338794708252 25.547038674354553 29.98338794708252 25.547038674354553 29.98338794708252 25.547038674354553 Z M 13.333426475524902 26.150550484657288 C 13.333426475524902 26.150550484657288 17.03344440460205 26.150550484657288 17.03344440460205 26.150550484657288 C 17.374025344848633 26.150550484657288 17.64999485015869 25.880292296409607 17.64999485015869 25.547038674354553 C 17.64999485015869 25.547038674354553 17.64999485015869 21.92421793937683 17.64999485015869 21.92421793937683 C 17.64999485015869 21.590575456619263 17.374025344848633 21.32051169872284 17.03344440460205 21.32051169872284 C 17.03344440460205 21.32051169872284 13.333426475524902 21.32051169872284 13.333426475524902 21.32051169872284 C 12.99284553527832 21.32051169872284 12.716756820678711 21.590575456619263 12.716756820678711 21.92421793937683 C 12.716756820678711 21.92421793937683 12.716756820678711 25.547038674354553 12.716756820678711 25.547038674354553 C 12.71663761138916 25.880292296409607 12.99284553527832 26.150550484657288 13.333426475524902 26.150550484657288 Z M 13.949976921081543 22.52811861038208 C 13.949976921081543 22.52811861038208 16.41665554046631 22.52811861038208 16.41665554046631 22.52811861038208 C 16.41665554046631 22.52811861038208 16.41665554046631 24.943138003349304 16.41665554046631 24.943138003349304 C 16.41665554046631 24.943138003349304 13.949976921081543 24.943138003349304 13.949976921081543 24.943138003349304 C 13.949976921081543 24.943138003349304 13.949976921081543 22.52811861038208 13.949976921081543 22.52811861038208 Z"/></g></svg>