<svg xmlns="http://www.w3.org/2000/svg" viewBox="0 0 31.98 32"><defs><style>.cls-1{fill:#4970b4;}</style></defs><title>ico-phone</title><g id="Calque_2" data-name="Calque 2"><g id="Calque_1-2" data-name="Calque 1"><path class="cls-1" d="M22.7,0H9.28A2.35,2.35,0,0,0,6.93,2.35v27.3A2.35,2.35,0,0,0,9.28,32H22.7a2.35,2.35,0,0,0,2.35-2.35V2.35A2.35,2.35,0,0,0,22.7,0ZM24,29.65a1.28,1.28,0,0,1-1.28,1.28H9.28A1.28,1.28,0,0,1,8,29.65v-4H24Zm0-5.12H8V4.27H24ZM24,3.2H8V2.35A1.28,1.28,0,0,1,9.28,1.07H22.7A1.28,1.28,0,0,1,24,2.35ZM16,30.4a2.14,2.14,0,1,0-2.13-2.13A2.14,2.14,0,0,0,16,30.4Zm0-3.2a1.07,1.07,0,1,1-1.07,1.07A1.06,1.06,0,0,1,16,27.2ZM16,1.6H13.86a.54.54,0,1,0,0,1.07H16A.54.54,0,0,0,16,1.6Zm2.13,0h-.53a.54.54,0,1,0,0,1.07h.53a.54.54,0,0,0,0-1.07Zm12.05.84a.53.53,0,0,0-.75.75,5.12,5.12,0,0,1,0,7.23.53.53,0,0,0,0,.75.5.5,0,0,0,.37.16.51.51,0,0,0,.38-.16A6.17,6.17,0,0,0,30.17,2.44Zm-3,1.21a.53.53,0,0,0,0,.75,3.51,3.51,0,0,1,0,4.95.54.54,0,0,0,0,.76.56.56,0,0,0,.76,0,4.59,4.59,0,0,0,0-6.46A.54.54,0,0,0,27.17,3.65ZM2.56,2.44a.53.53,0,0,0-.75,0,6.17,6.17,0,0,0,0,8.73.5.5,0,0,0,.37.16.54.54,0,0,0,.38-.91,5.12,5.12,0,0,1,0-7.23A.53.53,0,0,0,2.56,2.44ZM3.78,6.73a3.47,3.47,0,0,1,1-2.47.54.54,0,0,0,0-.76.53.53,0,0,0-.75,0,4.59,4.59,0,0,0,0,6.46.52.52,0,0,0,.75,0,.53.53,0,0,0,0-.75A3.48,3.48,0,0,1,3.78,6.73Z"/></g></g></svg>